<?xml version="1.0" standalone="no"?><!DOCTYPE svg PUBLIC "-//W3C//DTD SVG 1.1//EN" "http://www.w3.org/Graphics/SVG/1.1/DTD/svg11.dtd"><svg t="1607497060694" class="icon" viewBox="0 0 1024 1024" version="1.1" xmlns="http://www.w3.org/2000/svg" p-id="2260" xmlns:xlink="http://www.w3.org/1999/xlink" width="200" height="200"><defs><style type="text/css"></style></defs><path d="M691.201 185.255H477.119c-5.117-30.078-31.277-53.039-62.718-53.039H341.44c-35.118 0-63.68 28.559-63.68 63.68v2.082a19.508 19.508 0 0 0-4.16 1.437c-47.84 23.442-78.719 72.801-78.719 125.84v384.641c0 77.199 62.801 140 140 140h356.238c77.203 0 140-62.801 140-140V325.254c0.082-77.199-62.718-139.999-139.918-139.999z m-378.398 10.64c0-15.758 12.879-28.641 28.637-28.641h72.961c15.761 0 28.64 12.883 28.64 28.641v0.64c-1.281 2.641-2.082 5.602-2.082 8.719 0 3.121 0.801 6.082 2.082 8.723v471.359c0 15.758-12.879 28.641-28.64 28.641H341.44c-15.758 0-28.637-12.883-28.637-28.641V195.895z m478.316 514.082c0 55.117-44.797 99.918-99.918 99.918h-356.32c-55.121 0-99.922-44.801-99.922-99.918V325.254c0-32.559 16.402-63.199 42.801-81.84v441.922c0 35.117 28.562 63.68 63.68 63.68h72.961c35.121 0 63.679-28.563 63.679-63.68v-460h213.039c55.121 0 99.922 44.801 99.922 99.918v384.723h0.078z m0 0" p-id="2261" fill="#ffffff"></path><path d="M704.24 296.695H564.561c-15.442 0-28 12.559-28 28v67.52c0 15.441 12.558 28 28 28H704.24c15.442 0 28-12.559 28-28v-67.52c0-15.441-12.558-28-28-28z m-2 93.442H566.561v-63.442h135.601v63.442h0.078zM574.08 517.574h-21.039c-4.082 0-7.359 3.36-7.359 7.36v21.043c0 4.078 3.359 7.359 7.359 7.359h21.039c4.082 0 7.36-3.359 7.36-7.359v-21.043c0-3.999-3.278-7.36-7.36-7.36z m70.879 0H623.92c-4.078 0-7.359 3.36-7.359 7.36v21.043c0 4.078 3.359 7.359 7.359 7.359h21.039c4.082 0 7.363-3.359 7.363-7.359v-21.043c0-3.999-3.281-7.36-7.363-7.36z m70.883 0h-21.039c-4.082 0-7.363 3.36-7.363 7.36v21.043c0 4.078 3.363 7.359 7.363 7.359h21.039c4.078 0 7.359-3.359 7.359-7.359v-21.043c0-3.999-3.359-7.36-7.359-7.36zM574.08 595.896h-21.039c-4.082 0-7.359 3.359-7.359 7.359v21.039c0 4.082 3.359 7.363 7.359 7.363h21.039c4.082 0 7.36-3.363 7.36-7.363v-21.039a7.34 7.34 0 0 0-7.36-7.359z m70.879 0H623.92c-4.078 0-7.359 3.359-7.359 7.359v21.039c0 4.082 3.359 7.363 7.359 7.363h21.039c4.082 0 7.363-3.363 7.363-7.363v-21.039a7.342 7.342 0 0 0-7.363-7.359z m70.883 0h-21.039c-4.082 0-7.363 3.359-7.363 7.359v21.039c0 4.082 3.363 7.363 7.363 7.363h21.039c4.078 0 7.359-3.363 7.359-7.363v-21.039c0-4.079-3.359-7.359-7.359-7.359zM574.08 674.137h-21.039c-4.082 0-7.359 3.359-7.359 7.359v21.039c0 4.078 3.359 7.36 7.359 7.36h21.039c4.082 0 7.36-3.36 7.36-7.36v-21.039a7.337 7.337 0 0 0-7.36-7.359z m70.879 0H623.92c-4.078 0-7.359 3.359-7.359 7.359v21.039c0 4.078 3.359 7.36 7.359 7.36h21.039c4.082 0 7.363-3.36 7.363-7.36v-21.039a7.34 7.34 0 0 0-7.363-7.359z m70.883 0h-21.039c-4.082 0-7.363 3.359-7.363 7.359v21.039c0 4.078 3.363 7.36 7.363 7.36h21.039c4.078 0 7.359-3.36 7.359-7.36v-21.039c0-4.082-3.359-7.359-7.359-7.359z m0 0" p-id="2262" fill="#ffffff"></path></svg>