<?xml version="1.0" standalone="no"?><!DOCTYPE svg PUBLIC "-//W3C//DTD SVG 1.1//EN" "http://www.w3.org/Graphics/SVG/1.1/DTD/svg11.dtd"><svg t="1555416951910" class="icon" style="" viewBox="0 0 1024 1024" version="1.1" xmlns="http://www.w3.org/2000/svg" p-id="7966" xmlns:xlink="http://www.w3.org/1999/xlink" width="200" height="200"><defs><style type="text/css"></style></defs><path d="M905.179865 178.849728c-6.609955-6.158958-13.992905-13.019912-21.969851-20.407862-22.792846-21.112857-45.78069-42.227714-67.517542-61.94758-2.454983-2.225985-2.454983-2.225985-4.911967-4.44997-29.001803-26.256822-53.194639-47.660677-71.071518-62.743575-10.459929-8.82494-18.692873-15.432895-24.742833-19.791865-4.015973-2.89298-7.279951-4.976966-10.499928-6.502956-4.052973-1.921987-7.832947-3.092979-13.163911-2.99298C677.041411 0.279938 665.595489 11.77586 665.595489 26.189763V256.453202H895.993928l-25.599827-25.584827v767.546798L895.993928 972.830347H230.379439c-42.476712 0-76.78048-34.205768-76.78048-76.622481V26.189763L127.999133 51.774589h460.796877c14.137904 0 25.599827-11.454922 25.599826-25.584826S602.933914 0.604936 588.79601 0.604936H102.399306v895.60293C102.399306 966.910387 159.651918 1024 230.379439 1024H921.593754V205.283549H691.195316l25.599826 25.584826V26.189763c0 13.629908-11.051925 24.730832-24.531834 24.98383-4.561969 0.085999-7.197951-0.730995-9.739934-1.935987-0.268998-0.126999 0.816994 0.565996 2.500983 1.779988 4.749968 3.421977 12.116918 9.333937 21.656854 17.382882 17.322883 14.614901 41.129721 35.678758 69.727527 61.567583a6296.03733 6296.03733 0 0 1 4.870967 4.41497c21.591854 19.586867 44.453699 40.586725 67.128545 61.589583a9988.951301 9988.951301 0 0 1 21.855852 20.302862c3.939973 3.670975 6.749954 6.295957 8.229944 7.680948 10.31893 9.659935 26.51882 9.129938 36.183755-1.182992s9.134938-26.50382-1.183992-36.162755a5497.69274 5497.69274 0 0 0-8.313944-7.759947zM102.399306 461.133815H0v434.943052h1023.99306V461.132815H153.598959v-0.597996h-51.199653v0.597996zM208.198589 711.002121v108.199267h-50.599657V528.003362H268.998177c32.53278 0 58.366604 8.466943 77.499475 25.399827 19.13287 16.932885 28.699805 39.332733 28.699805 67.199545 0 28.532807-9.366937 50.732656-28.099809 66.599549-18.732873 15.866892-44.965695 23.799839-78.699467 23.799838h-60.199592z m0-40.599725H268.998177c17.999878 0 31.732785-4.232971 41.199721-12.699913 9.466936-8.466943 14.199904-20.69986 14.199903-36.699752 0-15.732893-4.799967-28.299808-14.399902-37.699744-9.599935-9.399936-22.799845-14.232904-39.599732-14.499902h-62.199578v101.599311z m211.198569 148.798992V528.003362h85.999417c25.732826 0 48.566671 5.732961 68.499536 17.199883 19.932865 11.466922 35.36676 27.732812 46.299686 48.799669 10.932926 21.066857 16.399889 45.199694 16.399889 72.39951V681.002325c0 27.599813-5.499963 51.866648-16.499889 72.799506s-26.666819 37.066749-46.999681 48.399672c-20.332862 11.332923-43.632704 16.999885-69.899526 16.999885h-83.799432zM469.996815 568.803085v209.998577h32.999776c26.53282 0 46.899682-8.299944 61.099586-24.899831 14.199904-16.599887 21.432855-40.432726 21.699853-71.499516v-16.19989c0-31.599786-6.866953-55.732622-20.599861-72.399509-13.732907-16.666887-33.666772-24.999831-59.799594-24.999831H469.996815z m384.797392 126.999139H737.595001v123.399164H686.995344V528.003362h184.998746v40.799723H737.595001v86.599413h117.199206v40.399726z" fill="" p-id="7967"></path></svg>