<?xml version="1.0" standalone="no"?><!DOCTYPE svg PUBLIC "-//W3C//DTD SVG 1.1//EN" "http://www.w3.org/Graphics/SVG/1.1/DTD/svg11.dtd"><svg class="icon" width="64px" height="64.00px" viewBox="0 0 1024 1024" version="1.1" xmlns="http://www.w3.org/2000/svg"><path fill="#07C4A8" d="M944 493.726c0 22.018-10.64 62.57-81.906 86.78C825.086 593.08 776.042 600 724 600c-13 0-25.832-0.432-38.326-1.278a185.93 185.93 0 0 0 14.312-71.188c7.658 0.358 15.65 0.56 24.014 0.56 94.284 0 143.764-24.574 148-34.586-0.128-73.234-65.66-132.836-146.492-133.574-0.838 0.016-1.668 0.064-2.508 0.064-0.522 0-1.038-0.034-1.558-0.04a157.58 157.58 0 0 0-85.486 26.326 186.882 186.882 0 0 0-67.498-37.884 220.584 220.584 0 0 1 49.854-35.056 141.012 141.012 0 1 1 210-0.712C897.136 347.436 944 415.558 944 493.726zM723 150a69 69 0 1 0 69 69 69.078 69.078 0 0 0-69-69z m-69 377a140.4 140.4 0 0 1-35.696 93.628C687.136 655.436 734 723.558 734 801.726c0 22.018-10.64 62.57-81.906 86.78C615.086 901.08 566.042 908 514 908s-101.088-6.922-138.094-19.496C304.64 864.296 294 823.744 294 801.726c0-77.642 46.238-145.37 114.312-180.386A140.968 140.968 0 1 1 654 527zM366 801.51c4.236 10.012 53.716 34.586 148 34.586s143.764-24.574 148-34.586c-0.128-73.234-65.66-132.836-146.492-133.574-0.838 0.016-1.668 0.064-2.508 0.064-0.522 0-1.038-0.034-1.558-0.04C431.094 669.2 366.128 728.6 366 801.51zM513 458a69 69 0 1 0 69 69 69.08 69.08 0 0 0-69-69z m-88.45-95.712a188.322 188.322 0 0 0-58.772 49.616 159.866 159.866 0 0 0-64.27-13.968c-0.838 0.016-1.668 0.064-2.508 0.064-0.522 0-1.038-0.034-1.558-0.04C217.094 399.2 152.128 458.6 152 531.51c4.236 10.012 53.716 34.586 148 34.586 10.552 0 20.51-0.322 29.938-0.882a186.068 186.068 0 0 0 30.372 69.54A551.616 551.616 0 0 1 300 638c-52.044 0-101.086-6.922-138.094-19.496C90.64 594.296 80 553.744 80 531.726c0-77.642 46.238-145.37 114.312-180.386a141.012 141.012 0 1 1 210-0.712 223.62 223.62 0 0 1 20.238 11.66zM299 188a69 69 0 1 0 69 69 69.08 69.08 0 0 0-69-69z" /></svg>