<?xml version="1.0" standalone="no"?><!DOCTYPE svg PUBLIC "-//W3C//DTD SVG 1.1//EN" "http://www.w3.org/Graphics/SVG/1.1/DTD/svg11.dtd"><svg class="icon" width="64px" height="64.00px" viewBox="0 0 1024 1024" version="1.1" xmlns="http://www.w3.org/2000/svg"><path fill="#07C4A8" d="M238.933333 125.155556c-40.391111 0-73.147733 32.745244-73.147733 73.147733S198.542222 271.439644 238.933333 271.439644s73.147733-32.745244 73.147733-73.147733S279.324444 125.155556 238.933333 125.155556zM352.711111 377.093689C352.711111 332.208356 316.324978 295.822222 271.439644 295.822222l-65.012622 0C161.541689 295.822222 125.155556 332.208356 125.155556 377.093689L125.155556 409.6l227.555556 0L352.711111 377.093689zM238.933333 125.155556c-40.391111 0-73.147733 32.745244-73.147733 73.147733S198.542222 271.439644 238.933333 271.439644s73.147733-32.745244 73.147733-73.147733S279.324444 125.155556 238.933333 125.155556zM352.711111 377.093689C352.711111 332.208356 316.324978 295.822222 271.439644 295.822222l-65.012622 0C161.541689 295.822222 125.155556 332.208356 125.155556 377.093689L125.155556 409.6l227.555556 0L352.711111 377.093689zM512 603.022222c-40.391111 0-73.147733 32.745244-73.147733 73.147733 0 40.391111 32.745244 73.147733 73.147733 73.147733s73.147733-32.745244 73.147733-73.147733C585.147733 635.767467 552.391111 603.022222 512 603.022222zM625.777778 854.960356C625.777778 810.075022 589.391644 773.688889 544.506311 773.688889l-65.012622 0C434.608356 773.688889 398.222222 810.075022 398.222222 854.960356L398.222222 887.466667l227.555556 0L625.777778 854.960356zM512 603.022222c-40.391111 0-73.147733 32.745244-73.147733 73.147733 0 40.391111 32.745244 73.147733 73.147733 73.147733s73.147733-32.745244 73.147733-73.147733C585.147733 635.767467 552.391111 603.022222 512 603.022222zM625.777778 854.960356C625.777778 810.075022 589.391644 773.688889 544.506311 773.688889l-65.012622 0C434.608356 773.688889 398.222222 810.075022 398.222222 854.960356L398.222222 887.466667l227.555556 0L625.777778 854.960356zM796.444444 125.155556c-40.391111 0-73.147733 32.745244-73.147733 73.147733S756.053333 271.439644 796.444444 271.439644s73.147733-32.745244 73.147733-73.147733S836.835556 125.155556 796.444444 125.155556zM910.222222 377.093689C910.222222 332.208356 873.836089 295.822222 828.950756 295.822222l-65.012622 0C719.0528 295.822222 682.666667 332.208356 682.666667 377.093689L682.666667 409.6l227.555556 0L910.222222 377.093689zM796.444444 125.155556c-40.391111 0-73.147733 32.745244-73.147733 73.147733S756.053333 271.439644 796.444444 271.439644s73.147733-32.745244 73.147733-73.147733S836.835556 125.155556 796.444444 125.155556zM910.222222 377.093689C910.222222 332.208356 873.836089 295.822222 828.950756 295.822222l-65.012622 0C719.0528 295.822222 682.666667 332.208356 682.666667 377.093689L682.666667 409.6l227.555556 0L910.222222 377.093689zM700.404622 799.937422c-7.259022 0-14.392889-3.458844-18.796089-9.898667-7.099733-10.365156-4.448711-24.530489 5.927822-31.630222l1.763556-1.206044c10.3424-7.122489 24.519111-4.539733 31.652978 5.791289 7.145244 10.331022 4.551111 24.507733-5.791289 31.652978l-1.922844 1.319822C709.313422 798.640356 704.830578 799.937422 700.404622 799.937422zM322.264178 799.015822c-4.425956 0-8.897422-1.285689-12.834133-3.982222l-2.366578-1.661156c-10.171733-7.384178-12.413156-21.617778-5.0176-31.789511 7.395556-10.171733 21.640533-12.413156 31.789511-5.006222l1.319822 0.910222c10.376533 7.099733 13.027556 21.265067 5.927822 31.630222C336.645689 795.556978 329.511822 799.015822 322.264178 799.015822zM761.025422 746.837333c-5.347556 0-10.717867-1.877333-15.041422-5.688889-9.4208-8.317156-10.319644-22.698667-2.002489-32.119467l1.058133-1.183289c8.362667-9.352533 23.005867-10.456178 32.381156-2.127644 9.375289 8.362667 10.467556 22.436978 2.127644 31.823644-0.011378 0.011378-0.557511 0.6144-0.568889 0.625778l-0.864711 0.978489C773.597867 744.231822 767.328711 746.837333 761.025422 746.837333zM261.882311 745.608533c-6.269156 0-12.504178-2.582756-17.009778-7.623111l-1.627022-1.854578c-8.271644-9.466311-7.281778-23.847822 2.184533-32.096711 9.477689-8.283022 23.836444-7.293156 32.108089 2.184533l1.342578 1.501867c8.351289 9.386667 7.520711 23.779556-1.877333 32.130844C272.668444 743.708444 267.264 745.608533 261.882311 745.608533zM807.298844 680.800711c-3.618133 0-7.281778-0.853333-10.695111-2.673778-11.093333-5.927822-15.280356-19.706311-9.352533-30.799644l0.967111-1.8432c5.848178-11.138844 19.603911-15.405511 30.731378-9.568711 11.127467 5.8368 15.405511 19.603911 9.568711 30.72l-1.1264 2.139022C823.296 676.431644 815.422578 680.800711 807.298844 680.800711zM215.9616 679.389867c-8.135111 0-15.997156-4.369067-20.093156-12.037689l-1.183289-2.2528c-5.768533-11.1616-1.399467-24.894578 9.773511-30.651733 11.172978-5.791289 24.894578-1.399467 30.663111 9.762133l0.898844 1.695289c5.927822 11.093333 1.729422 24.8832-9.352533 30.799644C223.243378 678.536533 219.568356 679.389867 215.9616 679.389867zM836.425956 605.5936c-1.774933 0-3.572622-0.2048-5.381689-0.648533-12.208356-2.958222-19.717689-15.2576-16.759467-27.477333l0.364089-1.444978c3.037867-12.174222 15.519289-19.990756 27.659378-17.021156 12.1856 3.026489 19.729067 14.904889 16.736711 27.101867 0 0.011378-0.227556 0.898844-0.227556 0.9216l-0.284444 1.183289C855.995733 598.607644 846.688711 605.5936 836.425956 605.5936zM187.198578 604.068978c-10.228622 0-19.524267-6.940444-22.072889-17.3056l-0.557511-2.2528c-2.958222-12.219733 4.539733-24.519111 16.759467-27.477333 12.231111-3.003733 24.519111 4.539733 27.477333 16.748089l0.512 2.104889c3.003733 12.208356-4.448711 24.530489-16.657067 27.5456C190.816711 603.8528 188.996267 604.068978 187.198578 604.068978zM846.586311 525.6192c-0.056889 0-0.113778 0-0.170667 0-12.561067-0.091022-22.687289-10.353778-22.584889-22.926222l0-3.436089c0-12.561067 10.194489-22.755556 22.755556-22.755556s22.755556 10.194489 22.755556 22.755556l0 3.766044C869.239467 515.549867 859.067733 525.6192 846.586311 525.6192zM177.413689 523.707733c-12.561067 0-22.755556-9.841778-22.755556-22.414222l0-2.491733c0.136533-12.481422 10.296889-22.516622 22.755556-22.516622 0.079644 0 0.170667 0 0.250311 0 12.561067 0.136533 22.641778 10.433422 22.516622 22.994489l0 1.319822C200.169244 513.183289 189.986133 523.707733 177.413689 523.707733zM631.751111 210.887111c-2.696533 0-5.4272-0.489244-8.0896-1.501867l-2.048-0.773689c-11.753244-4.448711-17.681067-17.578667-13.243733-29.331911 4.437333-11.753244 17.567289-17.681067 29.331911-13.243733l2.161778 0.8192c11.741867 4.482844 17.635556 17.624178 13.164089 29.366044C649.568711 205.300622 640.932978 210.887111 631.751111 210.887111zM392.442311 210.807467c-9.170489 0-17.806222-5.586489-21.276444-14.665956-4.471467-11.741867 1.422222-24.894578 13.164089-29.366044l2.389333-0.898844c11.810133-4.289422 24.871822 1.763556 29.184 13.573689 4.3008 11.798756-1.763556 24.871822-13.573689 29.172622l-1.809067 0.682667C397.869511 210.318222 395.127467 210.807467 392.442311 210.807467zM553.528889 191.340089c-0.910222 0-1.820444-0.056889-2.742044-0.170667l-2.207289-0.250311c-12.481422-1.501867-21.378844-12.822756-19.899733-25.304178 1.490489-12.470044 12.834133-21.253689 25.2928-19.899733l2.241422 0.273067c12.481422 1.501867 21.378844 12.834133 19.876978 25.315556C574.702933 182.863644 564.883911 191.340089 553.528889 191.340089zM470.6304 191.328711c-11.3664 0-21.185422-8.487822-22.562133-20.059022-1.490489-12.481422 7.418311-23.802311 19.899733-25.304178l2.207289-0.250311c12.515556-1.536 23.813689 7.395556 25.315556 19.8656 1.501867 12.481422-7.395556 23.813689-19.876978 25.315556l-2.241422 0.273067C472.439467 191.2832 471.529244 191.328711 470.6304 191.328711z" /></svg>