<?xml version="1.0" standalone="no"?><!DOCTYPE svg PUBLIC "-//W3C//DTD SVG 1.1//EN" "http://www.w3.org/Graphics/SVG/1.1/DTD/svg11.dtd"><svg class="icon" width="64px" height="64.00px" viewBox="0 0 1024 1024" version="1.1" xmlns="http://www.w3.org/2000/svg"><path fill="#07C4A8" d="M711.016 789.333c-37.703 0-68.267-30.564-68.267-68.266 0-37.703 30.564-68.267 68.267-68.267 37.703 0 68.267 30.564 68.267 68.267 0 37.702-30.564 68.266-68.267 68.266z m0-51.2c9.426 0 17.067-7.64 17.067-17.066 0-9.426-7.641-17.067-17.067-17.067s-17.067 7.641-17.067 17.067c0 9.425 7.641 17.066 17.067 17.066z m65.626-130.735H645.39l-65.626 113.669 65.626 113.668h131.253l65.627-113.668-65.627-113.669zM502.87 546.07C334.628 590.652 237.74 673.254 206.327 794.642c-6.494 25.094 8.585 50.701 33.678 57.195a46.933 46.933 0 0 0 11.758 1.496h249.862c21.207 0 38.4 17.193 38.4 38.4 0 21.208-17.193 38.4-38.4 38.4H251.763a123.733 123.733 0 0 1-30.998-3.945c-66.156-17.12-105.909-84.63-88.79-150.786 31.335-121.089 114.154-210.328 245.417-267.32-53.698-37.84-88.776-100.331-88.776-171.015C288.616 221.602 382.218 128 497.683 128c115.464 0 209.066 93.602 209.066 209.067 0 113.73-90.811 206.25-203.879 209.003z m408.373 192.063L825.91 885.935a34.133 34.133 0 0 1-29.56 17.067H625.682a34.133 34.133 0 0 1-29.56-17.067l-85.334-147.802a34.133 34.133 0 0 1 0-34.133l85.333-147.802a34.133 34.133 0 0 1 29.56-17.066H796.35a34.133 34.133 0 0 1 29.56 17.066L911.244 704a34.133 34.133 0 0 1 0 34.133z m-413.56-268.8c73.048 0 132.266-59.217 132.266-132.266 0-73.05-59.218-132.267-132.266-132.267-73.05 0-132.267 59.218-132.267 132.267 0 73.049 59.218 132.266 132.267 132.266z" /></svg>