<?xml version="1.0" standalone="no"?><!DOCTYPE svg PUBLIC "-//W3C//DTD SVG 1.1//EN" "http://www.w3.org/Graphics/SVG/1.1/DTD/svg11.dtd"><svg class="icon" width="200px" height="200.00px" viewBox="0 0 1024 1024" version="1.1" xmlns="http://www.w3.org/2000/svg"><path fill="#333333" d="M765.952 957.098667H225.28c-99.669333 0-180.906667-81.237333-180.906667-181.589334C44.373333 675.84 125.610667 594.602667 225.28 594.602667c8.192 0 15.701333 0.682667 23.893333 1.365333-2.048-12.970667-3.413333-26.624-3.413333-39.594667C245.76 434.176 345.429333 334.506667 467.626667 334.506667c118.101333 0 215.04 92.842667 221.184 208.896 24.576-9.557333 50.517333-14.336 77.141333-14.336 118.101333 0 214.357333 95.573333 214.357333 213.674666s-96.256 214.357333-214.357333 214.357334zM225.28 635.562667c-77.141333 0-139.946667 62.805333-139.946667 139.946666 0 77.824 62.805333 140.629333 139.946667 140.629334h540.672c95.573333 0 173.397333-77.824 173.397333-173.397334 0-95.573333-77.824-172.714667-173.397333-172.714666-30.72 0-60.757333 8.192-87.381333 23.893333-6.826667 4.096-15.018667 4.096-21.845334-0.682667-6.826667-4.096-10.24-11.605333-9.557333-19.797333 0.682667-4.778667 0.682667-10.922667 0.682667-17.749333C648.533333 456.704 567.296 375.466667 467.626667 375.466667S286.72 456.704 286.72 556.373333c0 20.48 3.413333 40.96 10.24 60.757334 2.730667 7.509333 0.682667 15.701333-4.778667 21.162666-5.461333 5.461333-13.653333 7.509333-21.162666 4.778667-15.018667-4.778667-30.72-7.509333-45.738667-7.509333zM959.829333 534.528c-11.605333 0-20.48-8.874667-20.48-20.48V127.658667c0-2.730667-2.730667-5.461333-5.461333-5.461334H493.568c-2.730667 0-5.461333 2.730667-5.461333 5.461334v135.168c0 11.605333-8.874667 20.48-20.48 20.48s-20.48-8.874667-20.48-20.48V127.658667c0-25.258667 21.162667-46.421333 46.421333-46.421334h440.32c25.258667 0 46.421333 21.162667 46.421333 46.421334v386.389333c0 11.605333-8.874667 20.48-20.48 20.48zM765.952 957.098667H225.28c-99.669333 0-180.906667-81.237333-180.906667-181.589334C44.373333 675.84 125.610667 594.602667 225.28 594.602667c8.192 0 15.701333 0.682667 23.893333 1.365333-2.048-12.970667-3.413333-26.624-3.413333-39.594667C245.76 434.176 345.429333 334.506667 467.626667 334.506667c118.101333 0 215.04 92.842667 221.184 208.896 24.576-9.557333 50.517333-14.336 77.141333-14.336 118.101333 0 214.357333 95.573333 214.357333 213.674666s-96.256 214.357333-214.357333 214.357334zM225.28 635.562667c-77.141333 0-139.946667 62.805333-139.946667 139.946666 0 77.824 62.805333 140.629333 139.946667 140.629334h540.672c95.573333 0 173.397333-77.824 173.397333-173.397334 0-95.573333-77.824-172.714667-173.397333-172.714666-30.72 0-60.757333 8.192-87.381333 23.893333-6.826667 4.096-15.018667 4.096-21.845334-0.682667-6.826667-4.096-10.24-11.605333-9.557333-19.797333 0.682667-4.778667 0.682667-10.922667 0.682667-17.749333C648.533333 456.704 567.296 375.466667 467.626667 375.466667S286.72 456.704 286.72 556.373333c0 20.48 3.413333 40.96 10.24 60.757334 2.730667 7.509333 0.682667 15.701333-4.778667 21.162666-5.461333 5.461333-13.653333 7.509333-21.162666 4.778667-15.018667-4.778667-30.72-7.509333-45.738667-7.509333zM949.589333 283.306667H467.626667c-11.605333 0-20.48-8.874667-20.48-20.48s8.874667-20.48 20.48-20.48h481.962666c11.605333 0 20.48 8.874667 20.48 20.48s-8.874667 20.48-20.48 20.48zM959.146667 437.589333h-230.741334c-11.605333 0-20.48-8.874667-20.48-20.48s8.874667-20.48 20.48-20.48h230.741334c11.605333 0 20.48 8.874667 20.48 20.48s-8.874667 20.48-20.48 20.48zM893.610667 206.165333h-70.314667c-11.605333 0-20.48-8.874667-20.48-20.48s8.874667-20.48 20.48-20.48h70.314667c11.605333 0 20.48 8.874667 20.48 20.48s-8.874667 20.48-20.48 20.48zM893.610667 358.4h-70.314667c-11.605333 0-20.48-8.874667-20.48-20.48s8.874667-20.48 20.48-20.48h70.314667c11.605333 0 20.48 8.874667 20.48 20.48s-8.874667 20.48-20.48 20.48z" /></svg>