<?xml version="1.0" encoding="utf-8"?>
<!-- Generator: Adobe Illustrator 21.0.0, SVG Export Plug-In . SVG Version: 6.00 Build 0)  -->
<svg version="1.1" id="图层_1" xmlns="http://www.w3.org/2000/svg" xmlns:xlink="http://www.w3.org/1999/xlink" x="0px" y="0px"
	 viewBox="0 0 200 200" style="enable-background:new 0 0 200 200;" xml:space="preserve">
<style type="text/css">
	.st0{fill:#FFFFFF;}
</style>
<path class="st0" d="M100,187.5c-48.3,0-87.5-39.2-87.5-87.5S51.7,12.5,100,12.5s87.5,39.2,87.5,87.5S148.3,187.5,100,187.5z
	 M90.8,95.7c-0.6,2.2-1.1,4.2-2.1,8.5c-1.1,4.3-1.9,7.8-2.6,10.6c-1.3,5.4-2.3,10.3-3.3,14.8c-0.5,2.6,0.2,5.3,1.9,7.2
	c1.3,1.7,3.3,2.7,5.5,2.7c0.9,0,1.9-0.2,2.7-0.6c4.1-1.7,8-3.8,11.7-6.3l1.8-1.2l3.4-2.3l0.8-0.6h0.8l1.3-0.8l0.8-0.6v-0.9l-1.8-2.1
	c0-0.3,0-0.5,0-0.8l-0.8-1.8l-0.6-1.1h-1.2l-1.6,0.8l-1.6,1.1l-1.4,0.9l-2.8,1.9l-2,0.6c0.9-4.2,1.3-5.8,1.9-7.9
	c0.6-2.1,0.8-3.3,1.2-4.9v-2.1c0.9-3.7,1.9-7.3,2.9-11l1.3-4.8v-1.7l0.8-3.1c0.5-2.1,0.5-4.3,0-6.4c-0.3-2.1-1.6-3.9-3.6-4.7
	c-1.6-0.8-3.5-0.8-5.1,0c-2,0.8-3.8,1.8-5.6,3c-2.6,1.8-4.4,3.1-9.2,6.8l-3.4,2.4L78.6,93L77.3,94l-0.7,1.1l0.6,1.1l0.8,1.4v0.8
	l1.1,1.8l0.8,1.1l2-1.2l1.6-1.2l2.6-1.8l4.3-2.1v-0.7c0.1,0.5,0.1,1,0,1.5L90.8,95.7L90.8,95.7z M90.1,59c-0.2,2.2,0.6,4.3,2.1,6
	c2.2,2.1,5.2,3.2,8.2,2.9c2.5-0.1,5-1,7-2.6c3.6-2.4,5-7,3.1-11c-1.3-2.7-3.8-4.5-6.6-4.9h-2.7c-1.2-0.2-2.4-0.2-3.6,0
	c-4.1,1.3-7.1,4.9-7.5,9.2L90.1,59z"/>
</svg>
