<?xml version="1.0" encoding="UTF-8"?>
<svg width="34px" height="34px" viewBox="0 0 34 34" version="1.1" xmlns="http://www.w3.org/2000/svg" xmlns:xlink="http://www.w3.org/1999/xlink">
    <!-- Generator: Sketch 52.4 (67378) - http://www.bohemiancoding.com/sketch -->
    <title>形状</title>
    <desc>Created with Sketch.</desc>
    <g id="页面-1" stroke="none" stroke-width="1" fill="none" fill-rule="evenodd">
        <g id="监控来源" transform="translate(-1536.000000, -805.000000)" fill="#F0102C" fill-rule="nonzero">
            <g id="dagou-3" transform="translate(1536.000000, 805.000000)">
                <path d="M30.71425,1 L3.28575,1 C2.023375,1 1,2.023375 1,3.28575 L1,30.71425 C1,31.976625 2.023375,33 3.28575,33 L30.71425,33 C31.976625,33 33,31.976625 33,30.71425 L33,3.28575 C33,2.023375 31.976625,1 30.71425,1 Z M17.08,15.3626808 L24.6870123,7.75566846 C25.1612369,7.28144385 25.9301069,7.28144385 26.4043315,7.75566846 C26.8785562,8.22989306 26.8785562,8.99876306 26.4043315,9.47298767 L18.7973192,17.08 L26.4043039,24.6869847 C26.7110734,24.9937542 26.8308806,25.4408805 26.7185951,25.8599355 C26.6063097,26.2789905 26.2789905,26.6063097 25.8599355,26.7185951 C25.4408805,26.8308806 24.9937542,26.7110734 24.6869847,26.4043039 L17.08,18.7973192 L9.47301533,26.4043039 C9.1662458,26.7110734 8.71911946,26.8308806 8.30006449,26.7185951 C7.88100952,26.6063097 7.55369033,26.2789905 7.44140488,25.8599355 C7.32911944,25.4408805 7.44892658,24.9937542 7.75569611,24.6869847 L15.3626808,17.08 L7.75566846,9.47298767 C7.28144385,8.99876306 7.28144385,8.22989306 7.75566846,7.75566846 C8.22989306,7.28144385 8.99876306,7.28144385 9.47298767,7.75566846 L17.08,15.3626808 Z" id="形状"></path>
            </g>
        </g>
    </g>
</svg>