<?xml version="1.0" encoding="UTF-8"?>
<svg width="34px" height="34px" viewBox="0 0 34 34" version="1.1" xmlns="http://www.w3.org/2000/svg" xmlns:xlink="http://www.w3.org/1999/xlink">
    <!-- Generator: Sketch 52.4 (67378) - http://www.bohemiancoding.com/sketch -->
    <title>形状 copy 5</title>
    <desc>Created with Sketch.</desc>
    <g id="页面-1" stroke="none" stroke-width="1" fill="none" fill-rule="evenodd">
        <g id="监控来源" transform="translate(-1536.000000, -397.000000)" fill="#00E5FF" fill-rule="nonzero">
            <g id="dagou-3-copy" transform="translate(1536.000000, 397.000000)">
                <path d="M30.71425,1 L3.28575,1 C2.023375,1 1,2.023375 1,3.28575 L1,30.71425 C1,31.976625 2.023375,33 3.28575,33 L30.71425,33 C31.976625,33 33,31.976625 33,30.71425 L33,3.28575 C33,2.023375 31.976625,1 30.71425,1 Z M27.8157658,11.5713061 L15.5010963,24.245703 C15.3462851,24.4062226 15.1551534,24.5271036 14.9438404,24.5981387 C14.4232816,24.8204897 13.8204385,24.7113997 13.4106372,24.3206913 L6.23046835,17.4810806 C5.67220284,16.9382805 5.65467195,16.0468417 6.19112328,15.4825159 C6.7276052,14.9181288 7.61807035,14.8912445 8.1875642,15.4221945 L14.3812916,21.3214357 L25.7809588,9.59019478 C26.1840877,9.17535985 26.7983444,9.04670715 27.3338512,9.26494997 C27.869358,9.4831928 28.2190756,10.0047078 28.2179666,10.5833838 C28.2186534,10.9526939 28.0743307,11.3074892 27.8161023,11.5713061 L27.8157658,11.5713061 Z" id="形状-copy-5"></path>
            </g>
        </g>
    </g>
</svg>